<svg width="24" height="24" viewBox="0 0 24 24" fill="none" xmlns="http://www.w3.org/2000/svg">
<path fill-rule="evenodd" clip-rule="evenodd" d="M16 9.00001C16 5.13401 12.866 2 9.00001 2C5.13401 2 2 5.13401 2 9.00001C2 12.866 5.13401 16 9.00001 16C12.866 16 16 12.866 16 9.00001ZM9.00001 0C13.9706 0 18 4.02944 18 9.00001C18 11.2432 17.1793 13.2948 15.8218 14.8708L23.6854 22.2718C24.0875 22.6503 24.1067 23.2832 23.7282 23.6854C23.3497 24.0875 22.7168 24.1067 22.3146 23.7282L14.3535 16.2354C12.8573 17.3442 11.0053 18 9.00001 18C4.02944 18 0 13.9706 0 9.00001C0 4.02944 4.02944 0 9.00001 0Z" fill="#243443"/>
</svg>
