<svg width="24" height="25" viewBox="0 0 24 25" fill="none" xmlns="http://www.w3.org/2000/svg">
<g clip-path="url(#clip0_11_89)">
<path d="M12 15.4444C13.6569 15.4444 15 14.0615 15 12.3556C15 10.6496 13.6569 9.26666 12 9.26666C10.3431 9.26666 9 10.6496 9 12.3556C9 14.0615 10.3431 15.4444 12 15.4444Z" stroke="#333333" stroke-width="2" stroke-linecap="round" stroke-linejoin="round"/>
<path d="M19.4 15.4444C19.2669 15.755 19.2272 16.0995 19.286 16.4335C19.3448 16.7675 19.4995 17.0757 19.73 17.3184L19.79 17.3801C19.976 17.5714 20.1235 17.7985 20.2241 18.0485C20.3248 18.2985 20.3766 18.5665 20.3766 18.8371C20.3766 19.1077 20.3248 19.3757 20.2241 19.6256C20.1235 19.8756 19.976 20.1028 19.79 20.294C19.6043 20.4855 19.3837 20.6374 19.1409 20.741C18.8981 20.8446 18.6378 20.898 18.375 20.898C18.1122 20.898 17.8519 20.8446 17.6091 20.741C17.3663 20.6374 17.1457 20.4855 16.96 20.294L16.9 20.2322C16.6643 19.9949 16.365 19.8356 16.0406 19.7751C15.7162 19.7145 15.3816 19.7554 15.08 19.8924C14.7842 20.023 14.532 20.2397 14.3543 20.5159C14.1766 20.7922 14.0813 21.1159 14.08 21.4472V21.6222C14.08 22.1684 13.8693 22.6922 13.4942 23.0783C13.1191 23.4645 12.6104 23.6815 12.08 23.6815C11.5496 23.6815 11.0409 23.4645 10.6658 23.0783C10.2907 22.6922 10.08 22.1684 10.08 21.6222V21.5296C10.0723 21.1888 9.96512 20.8582 9.77251 20.581C9.5799 20.3037 9.31074 20.0925 9 19.9748C8.69838 19.8378 8.36381 19.7969 8.03941 19.8574C7.71502 19.918 7.41568 20.0772 7.18 20.3146L7.12 20.3764C6.93425 20.5678 6.71368 20.7197 6.47088 20.8234C6.22808 20.927 5.96783 20.9803 5.705 20.9803C5.44217 20.9803 5.18192 20.927 4.93912 20.8234C4.69632 20.7197 4.47575 20.5678 4.29 20.3764C4.10405 20.1851 3.95653 19.958 3.85588 19.708C3.75523 19.458 3.70343 19.1901 3.70343 18.9194C3.70343 18.6488 3.75523 18.3809 3.85588 18.1309C3.95653 17.8809 4.10405 17.6538 4.29 17.4625L4.35 17.4007C4.58054 17.1581 4.73519 16.8499 4.794 16.5159C4.85282 16.1819 4.81312 15.8374 4.68 15.5268C4.55324 15.2223 4.34276 14.9626 4.07447 14.7796C3.80618 14.5967 3.49179 14.4985 3.17 14.4972H3C2.46957 14.4972 1.96086 14.2802 1.58579 13.894C1.21071 13.5079 1 12.9841 1 12.4379C1 11.8918 1.21071 11.368 1.58579 10.9818C1.96086 10.5956 2.46957 10.3787 3 10.3787H3.09C3.42099 10.3707 3.742 10.2604 4.0113 10.0621C4.28059 9.86375 4.48572 9.58661 4.6 9.26667C4.73312 8.95612 4.77282 8.61163 4.714 8.27762C4.65519 7.94361 4.50054 7.63541 4.27 7.39274L4.21 7.33097C4.02405 7.13972 3.87653 6.9126 3.77588 6.66261C3.67523 6.41262 3.62343 6.14466 3.62343 5.87404C3.62343 5.60342 3.67523 5.33546 3.77588 5.08547C3.87653 4.83548 4.02405 4.60836 4.21 4.41711C4.39575 4.22565 4.61632 4.07376 4.85912 3.97013C5.10192 3.8665 5.36217 3.81316 5.625 3.81316C5.88783 3.81316 6.14808 3.8665 6.39088 3.97013C6.63368 4.07376 6.85425 4.22565 7.04 4.41711L7.1 4.47889C7.33568 4.71626 7.63502 4.87549 7.95941 4.93605C8.28381 4.99661 8.61838 4.95573 8.92 4.81867H9C9.29577 4.68815 9.54802 4.47143 9.72569 4.19519C9.90337 3.91895 9.99872 3.59525 10 3.26393V3.08889C10 2.54274 10.2107 2.01896 10.5858 1.63278C10.9609 1.24659 11.4696 1.02963 12 1.02963C12.5304 1.02963 13.0391 1.24659 13.4142 1.63278C13.7893 2.01896 14 2.54274 14 3.08889V3.18156C14.0013 3.51288 14.0966 3.83658 14.2743 4.11282C14.452 4.38906 14.7042 4.60578 15 4.7363C15.3016 4.87336 15.6362 4.91424 15.9606 4.85368C16.285 4.79312 16.5843 4.63389 16.82 4.39652L16.88 4.33474C17.0657 4.14328 17.2863 3.99139 17.5291 3.88776C17.7719 3.78413 18.0322 3.73079 18.295 3.73079C18.5578 3.73079 18.8181 3.78413 19.0609 3.88776C19.3037 3.99139 19.5243 4.14328 19.71 4.33474C19.896 4.52599 20.0435 4.75311 20.1441 5.0031C20.2448 5.25309 20.2966 5.52105 20.2966 5.79167C20.2966 6.06229 20.2448 6.33025 20.1441 6.58024C20.0435 6.83023 19.896 7.05735 19.71 7.2486L19.65 7.31037C19.4195 7.55304 19.2648 7.86124 19.206 8.19525C19.1472 8.52926 19.1869 8.87375 19.32 9.1843V9.26667C19.4468 9.5712 19.6572 9.83092 19.9255 10.0139C20.1938 10.1968 20.5082 10.295 20.83 10.2963H21C21.5304 10.2963 22.0391 10.5133 22.4142 10.8994C22.7893 11.2856 23 11.8094 23 12.3556C23 12.9017 22.7893 13.4255 22.4142 13.8117C22.0391 14.1979 21.5304 14.4148 21 14.4148H20.91C20.5882 14.4161 20.2738 14.5143 20.0055 14.6973C19.7372 14.8802 19.5268 15.1399 19.4 15.4444V15.4444Z" stroke="#333333" stroke-width="2" stroke-linecap="round" stroke-linejoin="round"/>
</g>
<defs>
<clipPath id="clip0_11_89">
<rect width="24" height="24.7111" fill="white"/>
</clipPath>
</defs>
</svg>
